{"title":"Arrow S02E00 - Special Year One 480p HDTV x264 AAC E-Subs [GWC].","uid":8991854,"size":150445375,"categoryP":"video","categoryS":"tv_shows","magnet":"?xt=urn:btih:492600ab247f6b96b70f94c357cfe85a71a772fb&amp;dn=Arrow+S02E00+-+Special+Year+One+480p+HDTV+x264+AAC+E-Subs+%5BGWC%5D.&amp;tr=udp%3A%2F%2Ftracker.openbittorrent.com%3A80&amp;tr=udp%3A%2F%2Fopen.demonii.com%3A1337&amp;tr=udp%3A%2F%2Ftracker.coppersurfer.tk%3A6969&amp;tr=udp%3A%2F%2Fexodus.desync.com%3A6969","seeders":1,"leechers":0,"uploader":"canc232","files":1,"time":1380800907,"description":"\nArrow S02E00 - Special Year One 480p HDTV x264 AAC E-Subs [GWC]\n\nSCREENS:\n &lt;a href=&quot;\nhttp://s20.postimg.org/88rcnhrzx/ed_15_03_20.jpg&quot; rel=&quot;nofollow&quot; target=&quot;_NEW&quot;&gt;\nhttp://s20.postimg.org/88rcnhrzx/ed_15_03_20.jpg&lt;/a&gt; &lt;a href=&quot;\nhttp://s20.postimg.org/polip6qyl/ed_15_03_26.jpg&quot; rel=&quot;nofollow&quot; target=&quot;_NEW&quot;&gt;\nhttp://s20.postimg.org/polip6qyl/ed_15_03_26.jpg&lt;/a&gt; &lt;a href=&quot;\nhttp://s20.postimg.org/gczgs8ef1/ed_15_03_36.jpg&quot; rel=&quot;nofollow&quot; target=&quot;_NEW&quot;&gt;\nhttp://s20.postimg.org/gczgs8ef1/ed_15_03_36.jpg&lt;/a&gt; &lt;a href=&quot;\nhttp://s20.postimg.org/9p2v5muwt/ed_15_03_47.jpg&quot; rel=&quot;nofollow&quot; target=&quot;_NEW&quot;&gt;\nhttp://s20.postimg.org/9p2v5muwt/ed_15_03_47.jpg&lt;/a&gt;\n\n\nMEDIA INFO :\n\nGeneral \nComplete name : C:UsersShineDesktoped-muxed.mp4 \nFormat : MPEG-4 \nFormat profile : Base Media \nCodec ID : isom \nFile size : 143 MiB \nDuration : 40mn 59s \nOverall bit rate mode : Variable \nOverall bit rate : 489 Kbps \nEncoded date : UTC 2013-10-03 09:41:59 \nTagged date : UTC 2013-10-03 09:41:59 \n\nVideo \nID : 1 \nFormat : AVC \nFormat/Info : Advanced Video Codec \nFormat profile : &lt;a class=&quot;__cf_email__&quot; href=&quot;/cdn-cgi/l/email-protection&quot; data-cfemail=&quot;6a22030d022a2659445a&quot;&gt;[email&amp;#160;protected]&lt;/a&gt;&lt;script cf-hash='f9e31' type=&quot;text/javascript&quot;&gt;\n/* &lt;![CDATA[ */!function(){try{var t=&quot;currentScript&quot;in document?document.currentScript:function(){for(var t=document.getElementsByTagName(&quot;script&quot;),e=t.length;e--;)if(t[e].getAttribute(&quot;cf-hash&quot;))return t[e]}();if(t&amp;&amp;t.previousSibling){var e,r,n,i,c=t.previousSibling,a=c.getAttribute(&quot;data-cfemail&quot;);if(a){for(e=&quot;&quot;,r=parseInt(a.substr(0,2),16),n=2;a.length-n;n+=2)i=parseInt(a.substr(n,2),16)^r,e+=String.fromCharCode(i);e=document.createTextNode(e),c.parentNode.replaceChild(e,c)}}}catch(u){}}();/* ]]&gt; */&lt;/script&gt; \nFormat settings, CABAC : Yes \nFormat settings, ReFrames : 4 frames \nCodec ID : avc1 \nCodec ID/Info : Advanced Video Coding \nDuration : 40mn 42s \nBit rate : 430 Kbps \nMaximum bit rate : 2 602 Kbps \nWidth : 720 pixels \nHeight : 404 pixels \nDisplay aspect ratio : 16:9 \nFrame rate mode : Constant \nFrame rate : 23.976 fps \nColor space : YUV \nChroma subsampling : 4:2:0 \nBit depth : 8 bits \nScan type : Progressive \nBits/(Pixel*Frame) : 0.062 \nStream size : 125 MiB (87%) \nTitle : Arrow S02E00 - Special Year One 480p HDTV x264 AAC E-Subs [GWC] \nTagged date : UTC 2013-10-03 09:42:37 \n\nAudio \nID : 2 \nFormat : AAC \nFormat/Info : Advanced Audio Codec \nFormat profile : HE-AAC / LC \nCodec ID : 40 \nDuration : 40mn 42s \nBit rate mode : Variable \nBit rate : 60.0 Kbps \nMaximum bit rate : 86.8 Kbps \nChannel(s) : 2 channels \nChannel positions : Front: L R \nSampling rate : 48.0 KHz / 24.0 KHz \nCompression mode : Lossy \nDelay relative to video : -82ms \nStream size : 17.5 MiB (12%) \nTitle : Arrow S02E00 - Special Year One 480p HDTV x264 AAC E-Subs [GWC] \nLanguage : English \n\nText \nID : 3 \nFormat : Timed Text \nCodec ID : tx3g \nDuration : 40mn 59s \nBit rate mode : Variable \nBit rate : 124 bps \nDelay relative to video : -82ms \nStream size : 37.4 KiB (0%) \nTitle : ENGLISH SUBTITLE BY ELDERMAN \nLanguage : English","torrent":{"xt":"urn:btih:492600ab247f6b96b70f94c357cfe85a71a772fb","amp;dn":"Arrow+S02E00+-+Special+Year+One+480p+HDTV+x264+AAC+E-Subs+%5BGWC%5D.","amp;tr":["udp%3A%2F%2Ftracker.openbittorrent.com%3A80","udp%3A%2F%2Fopen.demonii.com%3A1337","udp%3A%2F%2Ftracker.coppersurfer.tk%3A6969","udp%3A%2F%2Fexodus.desync.com%3A6969"],"infoHash":"492600ab247f6b96b70f94c357cfe85a71a772fb","infoHashBuffer":{"type":"Buffer","data":[73,38,0,171,36,127,107,150,183,15,148,195,87,207,232,90,113,167,114,251]},"announce":[],"urlList":[]}}